<?xml version="1.0" standalone="no"?>
<!DOCTYPE svg PUBLIC "-//W3C//DTD SVG 20010904//EN"
 "http://www.w3.org/TR/2001/REC-SVG-20010904/DTD/svg10.dtd">
<svg version="1.0" xmlns="http://www.w3.org/2000/svg"
 width="689.000000pt" height="689.000000pt" viewBox="0 0 689.000000 689.000000"
 preserveAspectRatio="xMidYMid meet">
<metadata>
Created by potrace 1.14, written by Peter Selinger 2001-2017
</metadata>
<g transform="translate(0.000000,689.000000) scale(0.100000,-0.100000)"
fill="#000000" stroke="none">
<path d="M630 6861 c-19 -4 -58 -20 -86 -35 -55 -30 -72 -56 -95 -146 -20 -79
-15 -317 11 -470 5 -30 12 -75 15 -100 9 -67 51 -284 90 -460 30 -136 50 -237
69 -360 3 -19 7 -44 10 -55 2 -11 7 -42 10 -68 4 -27 9 -59 12 -70 2 -12 6
-44 9 -72 3 -27 8 -57 10 -65 2 -8 7 -51 11 -95 3 -44 8 -88 10 -98 15 -82 21
-430 8 -477 -15 -53 -12 -132 8 -179 32 -78 61 -134 85 -170 13 -18 23 -39 23
-45 -1 -6 -35 -34 -78 -63 -193 -130 -317 -300 -405 -553 -14 -41 -28 -86 -31
-100 -2 -14 -11 -63 -20 -110 -23 -125 -33 -258 -30 -410 2 -166 11 -272 39
-462 3 -21 7 -54 10 -73 14 -95 17 -114 25 -160 5 -27 12 -66 15 -85 10 -61
36 -182 61 -290 14 -58 27 -114 29 -124 3 -11 19 -65 36 -120 17 -55 33 -108
35 -116 13 -59 137 -352 160 -380 7 -9 17 -24 21 -35 35 -85 187 -268 278
-334 81 -60 226 -140 385 -214 174 -81 456 -163 660 -192 19 -3 49 -7 65 -10
93 -13 187 -19 330 -19 261 1 1185 14 1245 18 30 2 111 7 180 11 69 3 143 8
165 10 47 4 168 18 175 20 3 0 31 5 64 9 119 16 247 49 290 75 17 10 58 33 91
51 33 18 81 48 106 66 26 19 50 34 54 34 6 0 73 48 85 60 3 3 36 27 73 54 149
105 423 365 617 586 41 47 77 87 80 90 3 3 44 55 90 115 46 61 128 153 181
205 259 254 373 604 395 1210 4 119 10 168 25 209 27 74 23 204 -8 281 -4 8
-7 17 -8 20 -13 52 -76 188 -128 275 -30 51 -163 251 -174 263 -36 36 -34 48
12 81 131 94 195 253 195 487 0 103 5 127 55 254 22 56 129 399 151 483 1 4 2
8 4 10 1 1 3 9 5 17 2 8 13 47 24 85 50 178 202 784 217 870 8 49 24 107 40
149 34 87 14 212 -48 297 -54 74 -141 145 -193 157 -168 36 -420 -66 -674
-273 -164 -134 -411 -384 -556 -564 -112 -139 -235 -252 -350 -322 -72 -44
-80 -48 -105 -59 -14 -6 -38 -18 -55 -25 -47 -22 -152 -52 -238 -68 -73 -14
-297 -16 -367 -4 -22 4 -207 31 -286 42 -16 2 -57 7 -90 10 -32 3 -79 7 -104
10 -98 9 -314 17 -480 18 -162 1 -533 -10 -590 -17 -14 -2 -72 -7 -130 -10
-57 -4 -107 -9 -111 -12 -4 -2 -17 5 -30 15 -51 41 -827 818 -855 856 -16 22
-31 42 -34 45 -3 3 -25 32 -50 65 -25 33 -51 66 -58 73 -7 8 -25 30 -40 50
-26 34 -121 138 -187 206 -40 40 -128 115 -152 130 -11 6 -35 21 -54 34 -76
50 -179 76 -249 63z"/>
</g>
</svg>
